<svg xmlns="http://www.w3.org/2000/svg" viewBox="0 0 54.7 2.51"><defs><style>.cls-1{fill:#00649c}</style></defs><title>payoff</title><g id="Layer_2" data-name="Layer 2"><path class="cls-1" d="M5.1.05v2.41h1.84v-.58H5.77V.05H5.1zm2.85 0v2.41h1.96V1.9h-1.3v-.39h1.16V.98H8.61V.62h1.28V.05H7.95zm4.17.78l.27.69h-.54zM11.8 0l-1 2.43h.7l.15-.43h.93l.18.43h.72L12.45 0zm3.94.05l-.55 1.53-.55-1.53h-.75l.98 2.43h.62l.98-2.43h-.73zm1.68 0v2.41h1.96V1.9h-1.29v-.39h1.16V.98h-1.16V.62h1.28V.05h-1.95zm6.24 0l-.5.88-.5-.88h-.76l.91 1.51v.9h.68v-.91l.92-1.5h-.75zm3.28 1.21a.63.63 0 0 0-.62-.66.62.62 0 0 0-.61.65.63.63 0 0 0 .62.65.62.62 0 0 0 .61-.65M25 1.26a1.3 1.3 0 0 1 2.6 0 1.3 1.3 0 0 1-2.6 0m3.66.15V0h.68v1.39c0 .35.18.51.45.51s.45-.16.45-.5V0h.68v1.39a1 1 0 0 1-1.13 1.12 1 1 0 0 1-1.12-1.1m4.47-.2c.23 0 .36-.11.36-.29 0-.19-.14-.29-.36-.29h-.44v.58zM32 0h1.14a1.06 1.06 0 0 1 .86.31.75.75 0 0 1 .21.56.76.76 0 0 1-.5.74l.58.84h-.77L33 1.73h-.29v.73H32zm6.76.05l-.58.93-.58-.93h-.7v2.41h.65V1.08l.62.94h.01l.62-.94v1.38h.67V.05h-.71zm3 .78l.27.69h-.54zM41.45 0l-1 2.43h.7l.14-.43h.93l.18.43h.72L42.09 0zm3.73 1.21c.23 0 .36-.11.36-.29 0-.19-.14-.29-.36-.29h-.44v.58zM44.07 0h1.14a1.06 1.06 0 0 1 .79.31.75.75 0 0 1 .21.56.76.76 0 0 1-.5.74l.58.84h-.77L45 1.73h-.29v.73h-.67zm4.7.05l-.83.98V.05h-.67v2.41h.67v-.62l.25-.27.6.89h.81l-.95-1.37.92-1.04h-.8zM0 .32h3.3v.69H0zm0 1.19h3.3v.69H0zM51.4.32h3.3v.69h-3.3zm0 1.19h3.3v.69h-3.3z" id="Layer_1-2" data-name="Layer 1"/></g></svg>